<svg xmlns="http://www.w3.org/2000/svg" viewBox="0 0 113.05 113.05"><defs><style>.cls-1,.cls-2{fill:none;stroke:#ffcd1c;stroke-miterlimit:10;}.cls-1{stroke-width:2px;}.cls-2{stroke-width:3px;}</style></defs><title>MDE</title><g id="Layer_2" data-name="Layer 2"><g id="Calque_1" data-name="Calque 1"><circle class="cls-1" cx="56.53" cy="56.53" r="55.53"/><path class="cls-2" d="M90.37,70.26c-2.4-2.88-7.28,4.71-9.23,3S89.7,61,86,58.75s-7.79,10-10,9,5.8-16,1.44-17.06-6.17,14.87-8.56,14.35,1.13-13.47-3.26-14-2,15.94-5,19.52c-2.36,2.8-3.56-1.13-8.06-2.82s-5.78-.82-6.12,1S50,73.28,51.86,75s2.76,5.27,5.74,10.32S69.71,92.75,74.29,91c3.91-1.51,5-7.69,7.68-10.59C84.47,77.69,92.77,73.15,90.37,70.26Z"/><path class="cls-2" d="M22.81,39.52c2.69-2.6,6.73,5.47,8.85,4s-7.17-13.19-3.26-15,6.65,10.81,9,10.07-4-16.56.42-17.11,4.51,15.44,7,15.19.35-13.52,4.76-13.52.2,16.05,2.81,19.94c2,3,3.65-.74,8.31-1.93s5.84-.19,6,1.65-4,4.08-6,5.6-3.31,4.93-6.82,9.63-12.85,6.06-17.21,3.81c-3.73-1.92-4.15-8.2-6.49-11.37C27.87,47.55,20.12,42.13,22.81,39.52Z"/></g></g></svg>