<svg xmlns="http://www.w3.org/2000/svg" viewBox="0 0 113.05 113.05"><defs><style>.cls-1{fill:none;stroke:#75529d;stroke-miterlimit:10;stroke-width:2px;}.cls-2{fill:#75529d;}</style></defs><title>MDS</title><g id="Layer_2" data-name="Layer 2"><g id="Calque_1" data-name="Calque 1"><circle class="cls-1" cx="56.53" cy="56.53" r="55.53"/><rect class="cls-2" x="31.4" y="77.41" width="49.61" height="13.65"/><path class="cls-2" d="M76,53.69a19.82,19.82,0,0,0-39.61,0h0V73H76V53.69ZM41.08,59.49a1,1,0,1,1-2,.13,25.55,25.55,0,0,1,.24-5.53,1,1,0,0,1,1.15-.93,1.28,1.28,0,0,1,.79,1.46A22.52,22.52,0,0,0,41.08,59.49ZM54.65,40.21c-5.28.34-10,4.2-12.22,10.08a1,1,0,0,1-.81.67.84.84,0,0,1-.5-.13,1.4,1.4,0,0,1-.47-1.64c2.56-6.66,7.87-11,13.85-11.42a1.25,1.25,0,0,1,.16,2.44Z"/><path class="cls-2" d="M50.85,29.88l-2.56-9.55a2,2,0,0,0-3.82,1L47,30.9a2,2,0,0,0,3.82-1Zm0,0"/><path class="cls-2" d="M63.33,20.06l-2.56,9.55a2,2,0,1,0,3.81,1l2.56-9.54a1.9,1.9,0,0,0,0-1,2,2,0,0,0-3.81,0Zm0,0"/><path class="cls-2" d="M38.82,36.51a2,2,0,0,0-.51-.88l-7-7a2,2,0,0,0-2.79,2.79l7,7a2,2,0,0,0,3.3-1.91Zm0,0"/><path class="cls-2" d="M75.94,38.94a2,2,0,0,0,.88-.51l7-7A2,2,0,0,0,81,28.65l-7,7a2,2,0,0,0,1.91,3.3Zm0,0"/></g></g></svg>