<svg xmlns="http://www.w3.org/2000/svg" viewBox="0 0 113.05 113.05"><defs><style>.cls-1{fill:none;stroke:#f18318;stroke-miterlimit:10;stroke-width:2px;}.cls-2{fill:#f18318;}</style></defs><title>MLA</title><g id="Layer_2" data-name="Layer 2"><g id="Calque_1" data-name="Calque 1"><circle class="cls-1" cx="56.53" cy="56.53" r="55.53"/><path class="cls-2" d="M79.79,70.49,71.2,38.42l-.58-2.14a4.41,4.41,0,0,0-8.68,1L15.4,62.51A2.16,2.16,0,0,0,13.34,62a2.21,2.21,0,0,0-1.57,2.71l.86,3.2,1.72,6.41.86,3.21a2.19,2.19,0,0,0,4.23.05L23,77.45a11.87,11.87,0,0,0,11.66,9.8,12.13,12.13,0,0,0,3.09-.4,11.74,11.74,0,0,0,8.63-10l26-.68a4.41,4.41,0,0,0,8-3.52ZM39.87,80.64a7.4,7.4,0,0,1-12.39-3.31L41.88,77a7.34,7.34,0,0,1-2,3.69Zm-17.15-12L64.1,46.14l5.69,21.21Zm0,0"/><path class="cls-2" d="M86.44,46l8.45-5.13a2,2,0,0,0-2.06-3.38L84.39,42.6A2,2,0,0,0,86.44,46Zm0,0"/><path class="cls-2" d="M99.36,55.21l-9.88.22a2,2,0,1,0,.09,3.95l9.87-.22a1.9,1.9,0,0,0,1-.29,2,2,0,0,0-1.06-3.66Zm0,0"/><path class="cls-2" d="M76.7,36.3a2,2,0,0,0,.7-.74l4.75-8.66A2,2,0,1,0,78.69,25l-4.75,8.66A2,2,0,0,0,76.7,36.3Zm0,0"/><path class="cls-2" d="M84.78,72.6a2,2,0,0,0,.74.7l8.66,4.75a2,2,0,1,0,1.9-3.46l-8.66-4.75a2,2,0,0,0-2.63,2.76Zm0,0"/></g></g></svg>