<svg xmlns="http://www.w3.org/2000/svg" viewBox="0 0 113.05 113.05"><defs><style>.cls-1{fill:none;stroke:#d62732;stroke-miterlimit:10;stroke-width:2px;}.cls-2{fill:#d62732;}</style></defs><title>MLD</title><g id="Layer_2" data-name="Layer 2"><g id="Calque_1" data-name="Calque 1"><circle class="cls-1" cx="56.53" cy="56.53" r="55.53"/><path class="cls-2" d="M93.1,46.14c0-4.1,1.23-13.05-5-13.58C72.83,31.28,57.31,30.91,42,30.38c-5.49-.18-14.31-.87-17.86,4.62-4.41,6.8-3.47,17-3.91,24.84-.26,4.57-2,17.65,3.57,20.48,7.8,4,17.91.39,26.13-.24a1.34,1.34,0,0,0,.66-.26,48,48,0,0,0,5.15,12.66,1.58,1.58,0,0,0,2.86-.37,42.31,42.31,0,0,0,2.18-9c.24-1.37.81-3,1.16-4.6a2.1,2.1,0,0,0,.42.05C70,78,81.71,81.28,88.3,76.39s4.75-23.48,4.81-30.25ZM84.54,74.66c-6.43,2.44-15.41.11-22.22.63a1.77,1.77,0,0,0-.39.11,1.22,1.22,0,0,0-1.68-.47c-2,1.13-2.07,4.62-2.42,6.62s-.71,4.25-1.21,6.36c-1.79-3.41-3.12-7-5.07-10.37a.78.78,0,0,0-1.39.13.78.78,0,0,0-.24-.05c-5.28,0-10.48.42-15.73.68-11.16.58-11-7.3-10.71-16,.13-5.3.84-10.56,1-15.86.32-11.84,7.67-13,17.57-12.71,10.08.26,20.19.81,30.25,1.44,4.2.26,8.32.66,12.53.66,5.7,0,4.86,6.43,4.86,10.29,0,6.2,2.1,25.79-5.12,28.52Zm0,0"/><polygon class="cls-2" points="44.08 47.14 44.08 47.14 48.74 42.48 57.48 51.23 66.23 42.48 70.92 47.14 62.17 55.88 70.92 64.64 66.23 69.29 57.48 60.57 48.74 69.29 44.08 64.64 52.79 55.88 44.08 47.14"/></g></g></svg>