<svg xmlns="http://www.w3.org/2000/svg" viewBox="0 0 112.97 112.97"><defs><style>.cls-1{fill:none;stroke:#00a183;stroke-miterlimit:10;stroke-width:2px;}.cls-2{fill:#00a183;}</style></defs><title>MSP</title><g id="Layer_2" data-name="Layer 2"><g id="Calque_1" data-name="Calque 1"><circle class="cls-1" cx="56.49" cy="56.49" r="55.49"/><path class="cls-2" d="M91.61,89.1,81,78.47a18.5,18.5,0,0,0-8.29-28.6V33.17A2.41,2.41,0,0,0,72,31.46L60.16,19.65a2.42,2.42,0,0,0-1.71-.71H28.33a2.41,2.41,0,0,0-2.42,2.42v51.4a2.41,2.41,0,0,0,2.42,2.42H49.63a18.48,18.48,0,0,0,27.92,6.71L88.19,92.52a2.42,2.42,0,0,0,3.42-3.42ZM60.87,27.19l3.56,3.56H60.87ZM30.74,70.35V23.78H56v9.39a2.41,2.41,0,0,0,2.42,2.42h9.39V48.81q-.76-.06-1.54-.06a18.65,18.65,0,0,0-3.84.4H34.92a1.61,1.61,0,0,0,0,3.22h20.4A18.63,18.63,0,0,0,51,56.87H34.92a1.61,1.61,0,0,0,0,3.22H49.26a18.58,18.58,0,0,0-1.16,10.25Zm22.39-6.63H63.46a1.61,1.61,0,1,0,0-3.22h-9a13.65,13.65,0,0,1,17.35-5.77V74.5h-17a13.69,13.69,0,0,1-1.64-10.79Zm4.47,14H73.4A1.61,1.61,0,0,0,75,76.11V56.71c.33.27.64.56.95.86A13.65,13.65,0,0,1,57.6,77.72Zm0,0"/><path class="cls-2" d="M34.73,40.26H61a1.47,1.47,0,0,0,0-2.94H34.73a1.47,1.47,0,0,0,0,2.94Zm0,0"/></g></g></svg>