<svg xmlns="http://www.w3.org/2000/svg" xmlns:xlink="http://www.w3.org/1999/xlink" viewBox="0 0 54.24 54.24"><defs><style>.cls-1,.cls-3{fill:none;}.cls-2{clip-path:url(#clip-path);}.cls-3{stroke:#75529d;stroke-miterlimit:10;}.cls-4{fill:#75529d;}</style><clipPath id="clip-path"><rect class="cls-1" width="54.24" height="54.24"/></clipPath></defs><title>Fichier 8</title><g id="Calque_2" data-name="Calque 2"><g id="Calque_1-2" data-name="Calque 1"><g class="cls-2"><circle class="cls-3" cx="27.12" cy="27.12" r="26.62"/><path class="cls-4" d="M11.47,16,27.24,30.79,42.84,16a1.75,1.75,0,0,1,.2-.12,4.32,4.32,0,0,0-2.65-.91H13.85a4.35,4.35,0,0,0-2.62.88,1.33,1.33,0,0,1,.24.15"/><path class="cls-4" d="M44,36.37a1.51,1.51,0,0,1,.41.29,4.1,4.1,0,0,0,.32-1.57V19.16a4.1,4.1,0,0,0-.08-.74l-9.58,9.11c3.87,4,8,8.12,8.93,8.84"/><path class="cls-4" d="M32.86,29.61l-4.56,4.33a1.55,1.55,0,0,1-2.12,0L21.5,29.53l-9.59,9.31a4.38,4.38,0,0,0,1.94.47H40.39a4.31,4.31,0,0,0,1.93-.46c-1.26-.86-3.66-3.29-9.45-9.24"/><path class="cls-4" d="M9.62,18.35a4.16,4.16,0,0,0-.08.81V35.08a4.16,4.16,0,0,0,.31,1.57l9.46-9.18Z"/></g></g></g></svg>