<svg xmlns="http://www.w3.org/2000/svg" xmlns:xlink="http://www.w3.org/1999/xlink" viewBox="0 0 54.24 54.4"><defs><style>.cls-1,.cls-3{fill:none;}.cls-2{clip-path:url(#clip-path);}.cls-3{stroke:#75529d;stroke-miterlimit:10;}.cls-4{fill:#75529d;}</style><clipPath id="clip-path"><rect class="cls-1" width="54.24" height="54.4"/></clipPath></defs><title>Fichier 7</title><g id="Calque_2" data-name="Calque 2"><g id="Calque_1-2" data-name="Calque 1"><g class="cls-2"><ellipse class="cls-3" cx="27.12" cy="27.2" rx="26.62" ry="26.7"/><path class="cls-4" d="M41.49,23a2,2,0,1,0,2,2,2,2,0,0,0-2-2M12.76,23a2,2,0,1,0,2,2,2,2,0,0,0-2-2m22.78-3.63a3,3,0,1,0,3,3,3,3,0,0,0-3-3m9.23,18.08H41.38V31.22a5.81,5.81,0,0,0-.82-2.93,3.23,3.23,0,0,1,4.21,3.14ZM18.7,19.38a3,3,0,1,0,3,3,3,3,0,0,0-3-3m-5.94,8.76a3.25,3.25,0,0,1,.92.15,5.76,5.76,0,0,0-.82,2.93v6.24H9.47v-6a3.29,3.29,0,0,1,3.29-3.29M27.12,13.43a4.4,4.4,0,1,0,4.4,4.4,4.4,4.4,0,0,0-4.4-4.4M40.29,39.78H35.1V30.29a7.85,7.85,0,0,0-.9-3.61,4.69,4.69,0,0,1,6.09,4.54ZM19.13,30.29v9.49H13.95V31.22a4.76,4.76,0,0,1,4.76-4.75,4.68,4.68,0,0,1,1.33.22,7.87,7.87,0,0,0-.9,3.61m1.09,12.23H34V30.29a6.89,6.89,0,1,0-13.79,0Z"/></g></g></g></svg>