<svg xmlns="http://www.w3.org/2000/svg" viewBox="0 0 54.24 54.24"><defs><style>.cls-1{fill:none;stroke:#75529d;stroke-miterlimit:10;}.cls-2{fill:#75529d;}</style></defs><title>Fichier 6</title><g id="Calque_2" data-name="Calque 2"><g id="Calque_1-2" data-name="Calque 1"><circle class="cls-1" cx="27.12" cy="27.12" r="26.62"/><path class="cls-2" d="M44.37,35.37H9.87a.93.93,0,0,1-1-.9V16.34a.93.93,0,0,1,1-.9h34.5a.93.93,0,0,1,1,.9V34.47a.93.93,0,0,1-1,.9M10.82,33.56H43.42V17.25H10.82Z"/><path class="cls-2" d="M46.56,38.8H7.69a.87.87,0,1,1,0-1.73H46.56a.87.87,0,1,1,0,1.73"/><path class="cls-2" d="M39.42,31.2a.78.78,0,0,1-.62-.3L35.41,26.4a.7.7,0,0,1,.18-1,.79.79,0,0,1,1.07.17L40,30a.7.7,0,0,1-.18,1,.8.8,0,0,1-.44.13"/><polygon class="cls-2" points="34.64 30.32 33.9 23.15 40.81 26.13 37.02 27.29 34.64 30.32"/></g></g></svg>