<svg xmlns="http://www.w3.org/2000/svg" xmlns:xlink="http://www.w3.org/1999/xlink" viewBox="0 0 54.24 54.24"><defs><style>.cls-1,.cls-3{fill:none;}.cls-2{clip-path:url(#clip-path);}.cls-3{stroke:#75529d;stroke-miterlimit:10;}.cls-4{fill:#75529d;}</style><clipPath id="clip-path"><rect class="cls-1" width="54.24" height="54.24"/></clipPath></defs><title>Fichier 9</title><g id="Calque_2" data-name="Calque 2"><g id="Calque_1-2" data-name="Calque 1"><g class="cls-2"><circle class="cls-3" cx="27.12" cy="27.12" r="26.62"/><path class="cls-4" d="M44.94,22.38A10.64,10.64,0,0,0,35.19,13H19.06A10.64,10.64,0,0,0,9.3,22.38C8.77,25.52,11,25.2,11,25.2h4c2.49,0,2.4-2.81,2.4-2.81.39-2.2,1.73-4.89,6-4.89h7.59c4.24,0,5.58,2.69,6,4.89,0,0-.08,2.81,2.4,2.81h4s2.22.32,1.68-2.83"/><path class="cls-4" d="M39.42,32.71c-4-7.15-6-10.06-6-10.06H21l-6.5,11s-4.48,7.6,5.15,7.6H37.4s6.05-1.34,2-8.49m-12,4.72A5.6,5.6,0,1,1,33,31.83a5.61,5.61,0,0,1-5.61,5.6"/></g></g></g></svg>